<svg xmlns="http://www.w3.org/2000/svg" viewBox="0 0 500 359.77"><defs><style>.cls-1{isolation:isolate;}.cls-2{fill:#b5e0d9;}.cls-3{fill:#e1e1e1;}.cls-4{fill:#feca78;}.cls-5{fill:#e5b165;}.cls-6{fill:#fff;}.cls-7{fill:#e6f0f4;}.cls-8{fill:#bacbd1;}.cls-9{fill:#fc7f69;}.cls-10{fill:#e56655;}.cls-11{fill:#324449;}.cls-12{fill:#eabeb7;}.cls-13{fill:#facede;}.cls-14{fill:#425960;}.cls-15{fill:#fad3ca;}.cls-16{fill:#f2f2f2;opacity:0.2;mix-blend-mode:lighten;}.cls-17{fill:#465a61;}.cls-18{fill:#84a2ad;}.cls-19{fill:none;stroke:#fff;stroke-linecap:round;stroke-linejoin:round;stroke-width:3.11px;}.cls-20{fill:#0cbc9f;}</style></defs><g class="cls-1"><g id="OBJECT"><path class="cls-2" d="M378.7,73.56H375a8.28,8.28,0,0,0,.2-1.74A7.87,7.87,0,0,0,367.27,64a7.79,7.79,0,0,0-5.21,2h0a10.61,10.61,0,0,0-19.59,7.63h-4a3.62,3.62,0,0,0-3.62,3.62h0a3.62,3.62,0,0,0,3.62,3.61H378.7a3.62,3.62,0,0,0,3.62-3.61h0A3.62,3.62,0,0,0,378.7,73.56Z"/><path class="cls-2" d="M82,177H77.46a9.82,9.82,0,0,0,.24-2.11,9.56,9.56,0,0,0-15.91-7.16h0a12.89,12.89,0,0,0-24.16,6.27,12.47,12.47,0,0,0,.36,3H33.12a4.4,4.4,0,0,0-4.4,4.4h0a4.4,4.4,0,0,0,4.4,4.4H82a4.4,4.4,0,0,0,4.4-4.4h0A4.4,4.4,0,0,0,82,177Z"/><path class="cls-2" d="M419.36,216.42h4.56a9.16,9.16,0,0,1-.25-2.11,9.57,9.57,0,0,1,15.92-7.16h0a12.89,12.89,0,0,1,23.81,9.27h4.86a4.4,4.4,0,0,1,4.4,4.4h0a4.4,4.4,0,0,1-4.4,4.4h-48.9a4.4,4.4,0,0,1-4.4-4.4h0A4.4,4.4,0,0,1,419.36,216.42Z"/><path class="cls-2" d="M112.11,45.14h3.63a7.72,7.72,0,0,1-.19-1.68,7.61,7.61,0,0,1,12.66-5.69h0a10.27,10.27,0,0,1,19.24,5,9.9,9.9,0,0,1-.29,2.39H151a3.51,3.51,0,0,1,3.5,3.51h0a3.5,3.5,0,0,1-3.5,3.5H112.11a3.5,3.5,0,0,1-3.5-3.5h0A3.51,3.51,0,0,1,112.11,45.14Z"/><ellipse class="cls-3" cx="251.98" cy="310.43" rx="211.14" ry="18.4"/><rect class="cls-4" x="155.59" y="52.85" width="192.77" height="251.76" rx="25.96"/><path class="cls-5" d="M348.36,78.82V278.65a26,26,0,0,1-26,26H294.63a26,26,0,0,0,26-26V78.82a26,26,0,0,0-26-26h27.76A26,26,0,0,1,348.36,78.82Z"/><rect class="cls-6" x="169.09" y="65.34" width="165.76" height="226.78" rx="18.49"/><path class="cls-7" d="M334.86,83.83v189.8a18.49,18.49,0,0,1-18.5,18.49H296.41a18.48,18.48,0,0,0,18.48-18.49V83.83a18.48,18.48,0,0,0-18.48-18.48h19.95A18.49,18.49,0,0,1,334.86,83.83Z"/><path class="cls-8" d="M198.94,90.74A11.95,11.95,0,1,1,187,102.68a12,12,0,0,1,11.94-11.94m0-2.68h0a14.62,14.62,0,0,0-14.61,14.62h0a14.61,14.61,0,0,0,14.61,14.62h0a14.61,14.61,0,0,0,14.62-14.62h0a14.62,14.62,0,0,0-14.62-14.62Z"/><path class="cls-8" d="M318.4,91.24H227.32a1.59,1.59,0,0,1-1.59-1.59h0a1.59,1.59,0,0,1,1.59-1.59H318.4A1.59,1.59,0,0,1,320,89.65h0A1.59,1.59,0,0,1,318.4,91.24Z"/><path class="cls-8" d="M318.4,104.27H227.32a1.59,1.59,0,0,1-1.59-1.59h0a1.59,1.59,0,0,1,1.59-1.58H318.4a1.59,1.59,0,0,1,1.59,1.58h0A1.59,1.59,0,0,1,318.4,104.27Z"/><path class="cls-8" d="M268.11,117.3H227.32a1.59,1.59,0,0,1-1.59-1.58h0a1.59,1.59,0,0,1,1.59-1.59h40.79a1.59,1.59,0,0,1,1.59,1.59h0A1.59,1.59,0,0,1,268.11,117.3Z"/><path class="cls-8" d="M198.94,141.44A11.95,11.95,0,1,1,187,153.38a12,12,0,0,1,11.94-11.94m0-2.68h0a14.62,14.62,0,0,0-14.61,14.62h0A14.61,14.61,0,0,0,198.94,168h0a14.61,14.61,0,0,0,14.62-14.62h0a14.62,14.62,0,0,0-14.62-14.62Z"/><path class="cls-8" d="M318.4,141.94H227.32a1.59,1.59,0,0,1-1.59-1.59h0a1.59,1.59,0,0,1,1.59-1.59H318.4a1.59,1.59,0,0,1,1.59,1.59h0A1.59,1.59,0,0,1,318.4,141.94Z"/><path class="cls-8" d="M318.4,155H227.32a1.59,1.59,0,0,1-1.59-1.59h0a1.59,1.59,0,0,1,1.59-1.58H318.4a1.59,1.59,0,0,1,1.59,1.58h0A1.59,1.59,0,0,1,318.4,155Z"/><path class="cls-8" d="M268.11,168H227.32a1.59,1.59,0,0,1-1.59-1.59h0a1.59,1.59,0,0,1,1.59-1.58h40.79a1.59,1.59,0,0,1,1.59,1.58h0A1.59,1.59,0,0,1,268.11,168Z"/><path class="cls-8" d="M318.4,192.64H227.32a1.59,1.59,0,0,1-1.59-1.59h0a1.59,1.59,0,0,1,1.59-1.59H318.4a1.59,1.59,0,0,1,1.59,1.59h0A1.59,1.59,0,0,1,318.4,192.64Z"/><path class="cls-8" d="M318.4,205.67H227.32a1.59,1.59,0,0,1-1.59-1.59h0a1.59,1.59,0,0,1,1.59-1.58H318.4a1.59,1.59,0,0,1,1.59,1.58h0A1.59,1.59,0,0,1,318.4,205.67Z"/><path class="cls-8" d="M268.11,218.7H227.32a1.59,1.59,0,0,1-1.59-1.59h0a1.59,1.59,0,0,1,1.59-1.58h40.79a1.59,1.59,0,0,1,1.59,1.58h0A1.59,1.59,0,0,1,268.11,218.7Z"/><path class="cls-8" d="M318.4,243.34H227.32a1.59,1.59,0,0,1-1.59-1.59h0a1.59,1.59,0,0,1,1.59-1.59H318.4a1.59,1.59,0,0,1,1.59,1.59h0A1.59,1.59,0,0,1,318.4,243.34Z"/><path class="cls-8" d="M318.4,256.37H227.32a1.59,1.59,0,0,1-1.59-1.59h0a1.59,1.59,0,0,1,1.59-1.59H318.4a1.59,1.59,0,0,1,1.59,1.59h0A1.59,1.59,0,0,1,318.4,256.37Z"/><path class="cls-8" d="M268.11,269.4H227.32a1.59,1.59,0,0,1-1.59-1.59h0a1.59,1.59,0,0,1,1.59-1.58h40.79a1.59,1.59,0,0,1,1.59,1.58h0A1.59,1.59,0,0,1,268.11,269.4Z"/><path class="cls-9" d="M198.94,218.7h0a14.61,14.61,0,0,1-14.61-14.62h0a14.62,14.62,0,0,1,14.61-14.62h0a14.62,14.62,0,0,1,14.62,14.62h0A14.61,14.61,0,0,1,198.94,218.7Z"/><path class="cls-6" d="M194.56,212a1.51,1.51,0,0,1-1.15-.53l-5.59-6.38a1.52,1.52,0,1,1,2.29-2l4.65,5.3L208,198.12a1.52,1.52,0,0,1,2.14.27,1.54,1.54,0,0,1-.27,2.14l-14.37,11.14A1.47,1.47,0,0,1,194.56,212Z"/><path class="cls-9" d="M198.94,269.4h0a14.62,14.62,0,0,1-14.61-14.62h0a14.62,14.62,0,0,1,14.61-14.62h0a14.62,14.62,0,0,1,14.62,14.62h0A14.62,14.62,0,0,1,198.94,269.4Z"/><path class="cls-6" d="M194.56,262.69a1.5,1.5,0,0,1-1.15-.52l-5.59-6.38a1.52,1.52,0,1,1,2.29-2l4.65,5.3L208,248.82a1.52,1.52,0,0,1,2.14.27,1.54,1.54,0,0,1-.27,2.14l-14.37,11.14A1.46,1.46,0,0,1,194.56,262.69Z"/><path class="cls-9" d="M292.63,57.27c0-.16,0-.32-.05-.48-.05-.32-.11-.64-.18-.94s-.08-.31-.13-.46,0,0,0,0a8.89,8.89,0,0,0-1.07-2.24,8.56,8.56,0,0,0-1.67-1.83c-.21-.17-.43-.33-.65-.49h0a8.52,8.52,0,0,0-4.79-1.46H219.87a8.58,8.58,0,0,0-8.57,8.58V63.2a8,8,0,0,0,8,8h65.43a8,8,0,0,0,5.63-2.33,7.34,7.34,0,0,0,1-1.18A7.69,7.69,0,0,0,292,66.3c.1-.24.19-.48.27-.73a8,8,0,0,0,.35-2.37V57.93C292.65,57.71,292.64,57.49,292.63,57.27Zm-71.54,6.35a3.37,3.37,0,1,1,3.36-3.36A3.36,3.36,0,0,1,221.09,63.62Zm63.38-.4a3.37,3.37,0,1,1-1.61-6.33,3.29,3.29,0,0,1,1.59.4,3.37,3.37,0,0,1,0,5.93Z"/><path class="cls-9" d="M266.85,36.33H237.1a8.2,8.2,0,0,0-8.2,8.2v4.82h46.15V44.53A8.2,8.2,0,0,0,266.85,36.33Zm-7,9.49a2.72,2.72,0,0,1-1.93.8H246.06a2.74,2.74,0,0,1,0-5.47h11.83a2.74,2.74,0,0,1,1.93,4.67Z"/><path class="cls-10" d="M292.66,57.93V63.2a7.73,7.73,0,0,1-.36,2.37c-.08.25-.17.49-.27.73a6.8,6.8,0,0,1-.74,1.35,7.34,7.34,0,0,1-1,1.18,8,8,0,0,1-5.63,2.33h-8.18a8,8,0,0,0,8-7.94,3.37,3.37,0,0,0,0-5.93,8.58,8.58,0,0,0-8.56-7.93h8.19a8.64,8.64,0,0,1,4.79,1.45h0c.22.16.44.32.65.49a8.56,8.56,0,0,1,1.67,1.83,8.12,8.12,0,0,1,1.07,2.24s0,0,0,0a7.82,7.82,0,0,1,.36,1.88Q292.66,57.6,292.66,57.93Z"/><path class="cls-10" d="M275.05,44.54v4.82H269.3V44.54a8.19,8.19,0,0,0-8.2-8.2h5.75A8.19,8.19,0,0,1,275.05,44.54Z"/><path class="cls-11" d="M284,190.33a11.07,11.07,0,0,1,9.75,3.24c5.59,5.89,3.36,16.22,8.56,22.46,4.78,5.72,13.62,5.58,20,9.5,4.78,2.94,8,8.58,7.33,14.16s-5.64,10.52-11.25,10.47c3,.73,4.66,4.52,3.7,7.51s-3.85,5-6.9,5.76a23.84,23.84,0,0,1-9.33-.11A115,115,0,0,1,291,260c-6.18-1.83-12.65-4.54-15.95-10.06-2.53-4.25-2.76-9.54-1.77-14.38s3.08-9.38,5-13.94,3.61-9.32,3.78-14.25c.08-2.41-.37-5.12-2.32-6.53-2.61-1.89-5.34-2.42-2.88-5.88A11.19,11.19,0,0,1,284,190.33Z"/><path class="cls-11" d="M255.67,289.32h33.78a0,0,0,0,1,0,0v.41a14.91,14.91,0,0,1-14.91,14.91h-4a14.91,14.91,0,0,1-14.91-14.91v-.41a0,0,0,0,1,0,0Z"/><path class="cls-12" d="M280.84,298l8.29,2.28s1.35,7.45-3.3,9.06l-7.53-2.46S280.58,300.32,280.84,298Z"/><path class="cls-10" d="M289.13,300.23a38.6,38.6,0,0,1,8.79,1.82,4.05,4.05,0,0,1,2.51,2.77,127.8,127.8,0,0,1,2.87,13.4,4.11,4.11,0,0,1-5.21,4.49h0a4.08,4.08,0,0,1-2.37-1.88c-1.59-2.73-5.66-9.17-9.84-11.53C285.83,309.29,290.52,307.38,289.13,300.23Z"/><path class="cls-11" d="M278.62,311.42l-43.7-13.63a8.48,8.48,0,0,1-5.56-10.61h0a8.45,8.45,0,0,1,10.6-5.55l43.71,13.63.26,1.67a15.9,15.9,0,0,1-5.31,14.49Z"/><path class="cls-13" d="M263.61,298l-8.29,2.28s-1.36,7.45,3.3,9.06l7.52-2.46S263.86,300.32,263.61,298Z"/><path class="cls-9" d="M255.32,300.23a38.5,38.5,0,0,0-8.79,1.82,4.05,4.05,0,0,0-2.51,2.77,122.87,122.87,0,0,0-2.87,13.4,4.1,4.1,0,0,0,5.2,4.49h.06a4.06,4.06,0,0,0,2.36-1.88c1.6-2.73,5.66-9.17,9.85-11.53C258.62,309.29,253.93,307.38,255.32,300.23Z"/><path class="cls-14" d="M265.82,311.42l43.71-13.63a8.46,8.46,0,0,0,5.55-10.61h0a8.45,8.45,0,0,0-10.6-5.55l-43.7,13.63-.26,1.67a15.87,15.87,0,0,0,5.3,14.49Z"/><path class="cls-15" d="M283.12,242.13s16.85,9.93,27.64,27.68a4.42,4.42,0,0,1-.37,5.18l-.2.24a4.38,4.38,0,0,1-6.7-.38c-2.88-3.75-8.25-10.15-14-14Z"/><path class="cls-15" d="M309.19,277.45A92.15,92.15,0,0,1,289,286.17a15.37,15.37,0,0,1-5.38,3,4.58,4.58,0,0,1-4.44-7.64c1.38-1.39,3.61-2.59,7.24-3,0,0,10.78-4.54,18.33-8.7a4.47,4.47,0,0,1,5.84,1.2l.05.07A4.52,4.52,0,0,1,309.19,277.45Z"/><path class="cls-15" d="M262,242.13s-16.85,9.93-27.64,27.68a4.42,4.42,0,0,0,.37,5.18l.2.24a4.38,4.38,0,0,0,6.7-.38c2.88-3.75,8.25-10.15,14-14Z"/><path class="cls-15" d="M235.93,277.45a92.15,92.15,0,0,0,20.15,8.72,15.37,15.37,0,0,0,5.38,3,4.58,4.58,0,0,0,4.44-7.64c-1.38-1.39-3.61-2.59-7.24-3,0,0-10.78-4.54-18.33-8.7a4.47,4.47,0,0,0-5.84,1.2l-.05.07A4.52,4.52,0,0,0,235.93,277.45Z"/><path class="cls-9" d="M267.85,240.63h9.41a12.18,12.18,0,0,1,12.18,12.18v36.55a0,0,0,0,1,0,0H255.67a0,0,0,0,1,0,0V252.82A12.18,12.18,0,0,1,267.85,240.63Z"/><rect class="cls-4" x="247.29" y="260.74" width="50.54" height="28.63" rx="3.64"/><path class="cls-5" d="M297.83,264.37v21.35a3.64,3.64,0,0,1-3.64,3.64h-6.25a3.64,3.64,0,0,0,3.64-3.64V264.37a3.64,3.64,0,0,0-3.64-3.64h6.25A3.64,3.64,0,0,1,297.83,264.37Z"/><polygon class="cls-16" points="297.83 267.78 297.83 270.91 269.95 289.36 265.24 289.36 297.83 267.78"/><polygon class="cls-16" points="275.28 260.73 247.29 279.28 247.29 274.86 268.6 260.73 275.28 260.73"/><path class="cls-16" d="M296.79,261.84l-41.56,27.52h-4.3a3.61,3.61,0,0,1-3.6-3.21l38.39-25.42h8.47A3.58,3.58,0,0,1,296.79,261.84Z"/><path class="cls-15" d="M276.79,231.14V242a4.23,4.23,0,1,1-8.46,0v-10.9Z"/><path class="cls-12" d="M276.79,231.14v7.5a12.63,12.63,0,0,1-8.46.25v-7.75Z"/><path class="cls-15" d="M272.22,237.39h0a12.67,12.67,0,0,1-12.67-12.67V205.4h25.34v19.32A12.67,12.67,0,0,1,272.22,237.39Z"/><path class="cls-15" d="M289.25,225.75h-4.36V217h4.36a4.36,4.36,0,0,1,4.35,4.36h0A4.35,4.35,0,0,1,289.25,225.75Z"/><path class="cls-15" d="M255.2,225.75h4.35V217H255.2a4.36,4.36,0,0,0-4.36,4.36h0A4.36,4.36,0,0,0,255.2,225.75Z"/><path class="cls-11" d="M279.25,206.33s1.37,10.16,5.64,10.69h0a5,5,0,0,0,5.11-5v-.14a15.48,15.48,0,0,0-15.48-15.48h-3.84a15.48,15.48,0,0,0-15.48,15.48h0a3,3,0,0,0,3.46,3C264.65,214,276.53,211.63,279.25,206.33Z"/><path class="cls-9" d="M160.4,211.27a1.66,1.66,0,0,0-2.14.95l-6.73,17.55H126.77l7.53-19.65a1.65,1.65,0,1,0-3.09-1.18L95.37,302.41a1.66,1.66,0,0,0,.95,2.14,1.59,1.59,0,0,0,.6.11,1.67,1.67,0,0,0,1.55-1.06l4.8-12.53H128l-4.34,11.34a1.66,1.66,0,0,0,.95,2.14,1.59,1.59,0,0,0,.6.11,1.66,1.66,0,0,0,1.55-1.06l34.58-90.19A1.65,1.65,0,0,0,160.4,211.27Zm-10.14,21.82-6,15.76H119.46l6-15.76Zm-13.4,35-24.63-.33,6-15.54h24.76Zm-32.32,19.71L111,271l24.63.33-6.29,16.41Z"/><path class="cls-12" d="M57.93,281.88l3-7,8.07,3L66.1,285S61.6,287.26,57.93,281.88Z"/><path class="cls-11" d="M57.93,281.88l-4,7.64a3.35,3.35,0,0,0,.53,3.85c2.32,2.43,6.72,6.73,10.66,8.75a60.64,60.64,0,0,0,10.42.87,3.74,3.74,0,0,0,3.38-5.18c-1.24-2.9-4.22-6-11.31-5.37A12.58,12.58,0,0,1,66.1,285S61.26,287.16,57.93,281.88Z"/><path class="cls-11" d="M71.87,281.82,93,241.22a8.46,8.46,0,0,0-3.59-11.41h0A8.46,8.46,0,0,0,78,233.4L56.86,274l1,1.37a15.88,15.88,0,0,0,14,6.45Z"/><path class="cls-11" d="M107.53,196.36s-5.1,23.35-13.75,43.43a8.81,8.81,0,0,1-10.21,5.08l-.31-.08a8.74,8.74,0,0,1-5.82-11.39c3.25-9.14,8.84-26.28,9.13-37Z"/><path class="cls-15" d="M90,269.33l3.42-6.78,7.89,3.39L98,272.84S93.37,274.9,90,269.33Z"/><path class="cls-14" d="M104.25,269.41l20.44-41a8.46,8.46,0,0,0-3.79-11.35h0a8.47,8.47,0,0,0-11.36,3.79l-20.44,41,1,1.35a15.89,15.89,0,0,0,14.13,6.21Z"/><path class="cls-14" d="M73.76,196.36v2.34A17.2,17.2,0,0,0,83.09,214L113,229.4a7.24,7.24,0,0,0,8.81-1.77l.11-.13A7.23,7.23,0,0,0,120.68,217C113.6,211.87,100,202.19,90,196.36Z"/><path class="cls-17" d="M90,269.33l-4,7.29a3.7,3.7,0,0,0,1.15,4.83A53.59,53.59,0,0,0,107.56,290a4.62,4.62,0,0,0,5.38-3.62l0-.18a4.66,4.66,0,0,0-2.84-5.08A34.58,34.58,0,0,1,98,272.84S93.59,274.45,90,269.33Z"/><path class="cls-12" d="M89.7,147.77a94.31,94.31,0,0,0,28.74,16.42,5.06,5.06,0,0,1,3.5,4.71V169a5.1,5.1,0,0,1-6.66,4.75C109.72,172,98.57,168.08,89.87,162a8.7,8.7,0,0,1-.69-13.78Z"/><path class="cls-12" d="M116.34,164.58c4.92-1.07,15.65-3.83,23.08-8.79,0,0,3.78-6,10.06-5.38a5.5,5.5,0,0,1,3.3,9.48c-1.74,1.6-4.42,2.79-8.55,2.59,0,0-13,9.73-26.16,11.53a4.83,4.83,0,0,1-5.47-5.41s0-.09,0-.14A4.79,4.79,0,0,1,116.34,164.58Z"/><path class="cls-18" d="M103.81,156.11s-1,8.29-7.9,12.29l-9.74-7a7.28,7.28,0,0,1-2.67-8.35c.88-2.49,2.52-5,5.56-5.62a7,7,0,0,1,5.76,1.5Z"/><path class="cls-4" d="M104.76,202.43l-28.57-1.66a3.08,3.08,0,0,1-2.9-3.26l2-34.46A17.39,17.39,0,0,1,93.66,146.7h0A17.39,17.39,0,0,1,110,165.07l-2,34.46A3.08,3.08,0,0,1,104.76,202.43Z"/><path class="cls-9" d="M152.31,175.12h0a14.89,14.89,0,0,1-14-15.73h0a14.9,14.9,0,0,1,15.73-14h0a14.89,14.89,0,0,1,14,15.73h0A14.89,14.89,0,0,1,152.31,175.12Z"/><polyline class="cls-19" points="143.03 159.66 148.34 166.49 163.6 156"/><path class="cls-15" d="M91.06,153.59s12.23,13.06,29.39,20.74a5.5,5.5,0,0,1,3.29,5.46.57.57,0,0,1,0,.13,5.55,5.55,0,0,1-7.7,4.45c-5.83-2.45-17.48-7.89-26.26-15.42a9.45,9.45,0,0,1,.69-15C90.65,153.84,90.85,153.71,91.06,153.59Z"/><path class="cls-15" d="M118.14,174.54c5.42-.65,17.32-2.53,25.88-7.12,0,0,4.7-6.06,11.44-4.78A6,6,0,0,1,158,173.23c-2,1.55-5.07,2.57-9.52,1.92,0,0-15.07,9.18-29.49,9.76a5.25,5.25,0,0,1-5.36-6.42c0-.05,0-.09,0-.14A5.19,5.19,0,0,1,118.14,174.54Z"/><path class="cls-4" d="M105,165.72a19.13,19.13,0,0,1-7.62,9.93,2.62,2.62,0,0,1-3.07-.29L85.83,168a7.9,7.9,0,0,1-2.07-9.23c1.21-2.64,3.25-5.22,6.64-5.59a7.64,7.64,0,0,1,6.07,2.22l7.84,7.56A2.6,2.6,0,0,1,105,165.72Z"/><path class="cls-5" d="M102.07,171.23a17,17,0,0,1-4.73,4.42,2.59,2.59,0,0,1-3.07-.29L85.82,168a7.93,7.93,0,0,1-2.06-9.23,11.09,11.09,0,0,1,3-4.06,13.23,13.23,0,0,0-.93,1.74,7.91,7.91,0,0,0,2.06,9.22L96.3,173a2.61,2.61,0,0,0,3.07.3A16,16,0,0,0,102.07,171.23Z"/><path class="cls-15" d="M97.05,136.55l.94,7.67.43,3.48a4.36,4.36,0,0,1-8.65,1.05l-.91-7.41-.46-3.72Z"/><path class="cls-12" d="M97.19,137.27l.93,7.67A13.06,13.06,0,0,1,89,142.06l-.46-3.73Z"/><path class="cls-15" d="M99.59,142.8h0a13,13,0,0,1-14.53-11.36l-2.42-19.75,25.9-3.17L111,128.27A13,13,0,0,1,99.59,142.8Z"/><path class="cls-11" d="M120.66,97.11a10.35,10.35,0,0,0-14.92-2.47,11.32,11.32,0,0,0-3.14,3.89,6,6,0,0,0-8,6.39,5.28,5.28,0,0,0,.18.88l-12.92,1.58a2.93,2.93,0,0,0-2.55,3.27L81,124.4l4.45-.54-1.28-10.45L104.69,111a10.65,10.65,0,0,0,16-13.86Z"/><path class="cls-15" d="M82.06,133.31l4.45-.55-1.09-8.9L81,124.4a4.49,4.49,0,0,0-3.91,5h0A4.49,4.49,0,0,0,82.06,133.31Z"/><path class="cls-12" d="M445.13,281.88l-3-7-8.07,3L437,285S441.46,287.26,445.13,281.88Z"/><path class="cls-5" d="M445.13,281.88l4,7.64a3.33,3.33,0,0,1-.53,3.85c-2.32,2.43-6.72,6.73-10.66,8.75a60.59,60.59,0,0,1-10.41.87,3.74,3.74,0,0,1-3.39-5.18c1.24-2.9,4.22-6,11.31-5.37A12.58,12.58,0,0,0,437,285S441.8,287.16,445.13,281.88Z"/><path class="cls-10" d="M430.43,280.38,410,241.22a8.46,8.46,0,0,1,3.59-11.41h0A8.46,8.46,0,0,1,425,233.4l20.38,39.1a2.73,2.73,0,0,1-.22,2.87h0c-2.86,4.79-9.19,6-12.27,6.34A2.51,2.51,0,0,1,430.43,280.38Z"/><path class="cls-10" d="M395.53,196.36s5.1,23.35,13.75,43.43a8.81,8.81,0,0,0,10.21,5.08l.31-.08a8.74,8.74,0,0,0,5.82-11.39c-3.25-9.14-8.84-26.28-9.13-37Z"/><path class="cls-15" d="M389.15,292.27l2.8-7.06-7.78-3.64-2.95,7.06S382.75,293.45,389.15,292.27Z"/><path class="cls-9" d="M380.16,280.35l16.49-41.18a8.47,8.47,0,0,1,11-4.71h0a8.47,8.47,0,0,1,4.71,11l-16.4,41a2.68,2.68,0,0,1-2.27,1.67h0a14.65,14.65,0,0,1-13.06-5.16A2.5,2.5,0,0,1,380.16,280.35Z"/><path class="cls-9" d="M429.3,196.36l.07,5.7a38,38,0,0,1-3.76,17c-3.35,7-7.25,15.36-11.63,23.85a10.42,10.42,0,0,1-12.61,5l-.1,0A7.22,7.22,0,0,1,397,238.3c3.39-8.08,13.2-30.32,18.82-40.52Z"/><path class="cls-4" d="M389.15,292.27l-2.79,7.82a3.71,3.71,0,0,1-4.37,2.35,53.69,53.69,0,0,1-20-9.52,4.64,4.64,0,0,1-.87-6.43l.12-.15a4.66,4.66,0,0,1,5.68-1.25,34.61,34.61,0,0,0,14.28,3.54S383,293,389.15,292.27Z"/><path class="cls-12" d="M415.65,150.75a91.44,91.44,0,0,1-30.54,10,4.91,4.91,0,0,0-4.24,3.8l0,.12a5,5,0,0,0,5.41,5.81c5.63-.56,17-2.16,26.48-6.29a8.45,8.45,0,0,0,3.34-13A6.4,6.4,0,0,0,415.65,150.75Z"/><path class="cls-12" d="M387,161.56c-4.47-2-14.14-6.69-20.25-12.86,0,0-2.43-6.41-8.52-7.08a5.35,5.35,0,0,0-5,8.38c1.35,1.86,3.67,3.52,7.64,4.13,0,0,10.47,11.78,22.65,16.06a4.67,4.67,0,0,0,6.25-4.08s0-.09,0-.13A4.65,4.65,0,0,0,387,161.56Z"/><path class="cls-20" d="M400.61,155.94s-.7,8.08,5.12,13.24l10.62-4.74a7.11,7.11,0,0,0,4.18-7.43c-.36-2.54-1.43-5.24-4.21-6.44a6.84,6.84,0,0,0-5.76.31Z"/><path class="cls-14" d="M398.15,207.38h28.53a2.62,2.62,0,0,0,2.62-2.62V164.51a16.89,16.89,0,0,0-16.88-16.89h0a16.89,16.89,0,0,0-16.89,16.89v40.25A2.62,2.62,0,0,0,398.15,207.38Z"/><path class="cls-9" d="M361.79,150.51v33a5.52,5.52,0,0,0,3.11,5l13.62,6.6a2.72,2.72,0,0,0,3.9-2.45V157.36a5.51,5.51,0,0,0-3.85-5.25l-13.24-4.19A2.72,2.72,0,0,0,361.79,150.51Z"/><path class="cls-10" d="M382.42,157.37v35.3a2.71,2.71,0,0,1-3.9,2.44l-1.09-.52a2.81,2.81,0,0,0,.87-2.05v-37a5.84,5.84,0,0,0-1.62-4l1.89.61A5.5,5.5,0,0,1,382.42,157.37Z"/><path class="cls-15" d="M414.72,153.52s-4.89,16.68-16.41,30.84a5.37,5.37,0,0,0-.47,6.18l.07.11a5.38,5.38,0,0,0,8.62.49c4-4.68,11.71-14.49,16-24.86a9.19,9.19,0,0,0-7.16-12.69Z"/><path class="cls-15" d="M404.52,183.44c-4.81-2.25-15.21-7.59-21.71-14.43,0,0-2.5-7-9.11-7.88a5.81,5.81,0,0,0-5.6,9c1.42,2,3.9,3.91,8.21,4.66,0,0,11.11,13,24.24,18a5.1,5.1,0,0,0,6.89-4.3.66.66,0,0,1,0-.14A5,5,0,0,0,404.52,183.44Z"/><path class="cls-14" d="M407.58,169.75c1.67,1.69,6,5.41,11.91,5.68a1.78,1.78,0,0,0,1.75-1.1l4.32-10.6a7.69,7.69,0,0,0-2.25-8.91c-2.2-1.76-5.1-3.11-8.21-1.94a7.44,7.44,0,0,0-4.28,4.58l-3.65,10.45A1.76,1.76,0,0,0,407.58,169.75Z"/><path class="cls-11" d="M425.56,163.73l-4.32,10.6a1.78,1.78,0,0,1-1.75,1.1,15.89,15.89,0,0,1-5.77-1.41,14.87,14.87,0,0,0,3,.45,1.8,1.8,0,0,0,1.75-1.11l4.31-10.61a7.68,7.68,0,0,0-2.24-8.9,13.37,13.37,0,0,0-2-1.32,10.18,10.18,0,0,1,4.79,2.29A7.68,7.68,0,0,1,425.56,163.73Z"/><path class="cls-15" d="M419.35,136.31v10.9a4.24,4.24,0,0,1-8.47,0v-10.9Z"/><path class="cls-12" d="M419.35,136.31v4.18a12.68,12.68,0,0,1-8.47,5v-9.18Z"/><path class="cls-15" d="M409.17,142.64h0A12.68,12.68,0,0,0,421.84,130V110.64H396.5V130A12.67,12.67,0,0,0,409.17,142.64Z"/><path class="cls-15" d="M426.19,131.41h-4.35V122.7h4.35a4.36,4.36,0,0,1,4.36,4.35h0A4.36,4.36,0,0,1,426.19,131.41Z"/><path class="cls-11" d="M396.5,110.64V106.7a7.2,7.2,0,0,1,7.12-7.22c6.47-.06,15.44-.75,21.81-3.8a4.92,4.92,0,0,1,7.13,4.23c.07,4-.79,8.34-4.26,10.73Z"/><path class="cls-18" d="M421.84,110.64h6.47a0,0,0,0,1,0,0v10.16a1.89,1.89,0,0,1-1.89,1.89h-4.57a0,0,0,0,1,0,0V110.64A0,0,0,0,1,421.84,110.64Z"/></g></g></svg>